<?xml version="1.0" standalone="no"?>
<!DOCTYPE svg PUBLIC "-//W3C//DTD SVG 20010904//EN"
 "http://www.w3.org/TR/2001/REC-SVG-20010904/DTD/svg10.dtd">
<svg version="1.0" xmlns="http://www.w3.org/2000/svg"
 width="444.000000pt" height="444.000000pt" viewBox="0 0 444.000000 444.000000"
 preserveAspectRatio="xMidYMid meet">
<metadata>
Created by potrace 1.14, written by Peter Selinger 2001-2017
</metadata>
<g transform="translate(0.000000,444.000000) scale(0.100000,-0.100000)"
fill="#000000" stroke="none">
<path d="M2241 4357 c-24 -45 -65 -122 -91 -172 -26 -49 -69 -130 -95 -180
-49 -92 -131 -248 -193 -365 -18 -36 -48 -92 -65 -125 -18 -33 -68 -127 -111
-210 -43 -82 -93 -177 -111 -210 -18 -33 -58 -109 -90 -170 l-58 -110 295 300
c163 165 357 363 432 440 84 85 140 135 144 128 4 -6 48 -55 97 -109 50 -54
100 -109 113 -123 13 -14 42 -46 65 -72 23 -25 80 -87 127 -139 47 -51 96
-105 110 -120 14 -15 61 -67 105 -115 109 -121 168 -182 162 -170 -40 86 -194
403 -459 945 -74 151 -176 362 -228 468 -51 105 -96 192 -99 192 -3 0 -26 -37
-50 -83z"/>
<path d="M2154 3092 c-149 -145 -595 -578 -717 -696 -45 -43 -157 -151 -248
-240 -91 -89 -277 -269 -414 -401 -136 -132 -304 -295 -373 -362 l-125 -122
234 6 c129 3 284 6 346 7 l112 1 645 -643 c376 -373 653 -642 663 -642 19 0
65 44 523 490 151 147 313 304 360 349 l85 81 -410 406 c-500 495 -644 634
-653 634 -4 -1 -65 -58 -136 -129 l-128 -128 387 -384 c213 -211 394 -390 401
-397 8 -7 14 -16 14 -18 0 -3 -33 -37 -72 -75 -40 -39 -140 -136 -221 -217
l-148 -146 -437 437 c-240 240 -497 495 -569 568 -73 72 -133 134 -133 138 0
3 129 132 287 286 332 325 445 436 685 672 l175 172 479 -475 c263 -261 522
-518 575 -570 l95 -95 244 -4 245 -5 -815 815 c-448 448 -817 815 -820 815 -3
0 -64 -58 -136 -128z"/>
</g>
</svg>
