<svg width="38" height="31" viewBox="0 0 38 31" fill="none" xmlns="http://www.w3.org/2000/svg">
<path d="M0 9.4178V24.8C0 26.4443 0.653212 28.0213 1.81594 29.1841C2.97866 30.3468 4.55566 31 6.2 31H31C32.6443 31 34.2213 30.3468 35.3841 29.1841C36.5468 28.0213 37.2 26.4443 37.2 24.8V6.2C37.2 4.55566 36.5468 2.97866 35.3841 1.81594C34.2213 0.653212 32.6443 0 31 0H6.2C4.55566 0 2.97866 0.653212 1.81594 1.81594C0.653212 2.97866 0 4.55566 0 6.2V9.4178ZM6.2 3.1H31C31.8222 3.1 32.6107 3.42661 33.192 4.00797C33.7734 4.58933 34.1 5.37783 34.1 6.2V8.494L18.6 16.8392L3.1 8.494V6.2C3.1 5.37783 3.42661 4.58933 4.00797 4.00797C4.58933 3.42661 5.37783 3.1 6.2 3.1ZM3.1 12.0156L17.8653 19.964C18.0911 20.0856 18.3436 20.1492 18.6 20.1492C18.8564 20.1492 19.1089 20.0856 19.3347 19.964L34.1 12.0156V24.8C34.1 25.6222 33.7734 26.4107 33.192 26.992C32.6107 27.5734 31.8222 27.9 31 27.9H6.2C5.37783 27.9 4.58933 27.5734 4.00797 26.992C3.42661 26.4107 3.1 25.6222 3.1 24.8V12.0156Z" fill="black"/>
</svg>
