<svg width="22" height="22" viewBox="0 0 22 22" fill="none" xmlns="http://www.w3.org/2000/svg">
<g clip-path="url(#clip0_1_118)">
<path d="M21.7979 20.8192L15.1178 14.0982C16.3629 12.607 17.1133 10.6886 17.1133 8.59375C17.1133 3.84759 13.2657 0 8.51953 0C3.77338 0 -0.0742188 3.84759 -0.0742188 8.59375C-0.0742188 13.3399 3.77338 17.1875 8.51953 17.1875C10.6759 17.1875 12.6456 16.3914 14.1546 15.0789L20.8254 21.7917C21.0939 22.0602 21.5295 22.0602 21.7979 21.7917C22.0661 21.5232 22.0661 21.088 21.7979 20.8192H21.7979ZM8.51953 15.8238C4.52653 15.8238 1.28944 12.5868 1.28944 8.59375C1.28944 4.60075 4.52653 1.36366 8.51953 1.36366C12.5125 1.36366 15.7496 4.60075 15.7496 8.59375C15.7496 12.5868 12.5125 15.8238 8.51953 15.8238Z" fill="black"/>
</g>
<defs>
<clipPath id="clip0_1_118">
<rect width="22" height="22" fill="white"/>
</clipPath>
</defs>
</svg>
