<svg width="29" height="29" viewBox="0 0 29 29" fill="none" xmlns="http://www.w3.org/2000/svg">
<path d="M27.84 0H1.16C0.518375 0 0 0.518375 0 1.16V27.84C0 28.4816 0.518375 29 1.16 29H27.84C28.4816 29 29 28.4816 29 27.84V1.16C29 0.518375 28.4816 0 27.84 0ZM26.68 26.68H20.0064V17.7698H23.7764L24.3419 13.3944H20.0064V10.5995C20.0064 9.33075 20.358 8.468 22.1741 8.468H24.4905V4.553C24.0881 4.49862 22.7142 4.379 21.112 4.379C17.7697 4.379 15.4824 6.41987 15.4824 10.1645V13.3907H11.7051V17.7661H15.486V26.68H2.32V2.32H26.68V26.68Z" fill="#00004D"/>
</svg>
