<?xml version="1.0"?>
<svg xmlns="http://www.w3.org/2000/svg" xmlns:xlink="http://www.w3.org/1999/xlink" version="1.1" width="1166px" height="1166px" viewBox="0 0 1166 1166"><defs/><rect x="0" y="0" width="1166" height="1166" fill="#ffffff" fill-opacity="0.99212598425197"/><rect x="46" y="46" width="37" height="37" fill="#000000"/><rect x="83" y="46" width="37" height="37" fill="#000000"/><rect x="120" y="46" width="37" height="37" fill="#000000"/><rect x="157" y="46" width="37" height="37" fill="#000000"/><rect x="194" y="46" width="37" height="37" fill="#000000"/><rect x="231" y="46" width="37" height="37" fill="#000000"/><rect x="268" y="46" width="37" height="37" fill="#000000"/><rect x="379" y="46" width="37" height="37" fill="#000000"/><rect x="416" y="46" width="37" height="37" fill="#000000"/><rect x="490" y="46" width="37" height="37" fill="#000000"/><rect x="527" y="46" width="37" height="37" fill="#000000"/><rect x="564" y="46" width="37" height="37" fill="#000000"/><rect x="601" y="46" width="37" height="37" fill="#000000"/><rect x="638" y="46" width="37" height="37" fill="#000000"/><rect x="675" y="46" width="37" height="37" fill="#000000"/><rect x="712" y="46" width="37" height="37" fill="#000000"/><rect x="749" y="46" width="37" height="37" fill="#000000"/><rect x="786" y="46" width="37" height="37" fill="#000000"/><rect x="860" y="46" width="37" height="37" fill="#000000"/><rect x="897" y="46" width="37" height="37" fill="#000000"/><rect x="934" y="46" width="37" height="37" fill="#000000"/><rect x="971" y="46" width="37" height="37" fill="#000000"/><rect x="1008" y="46" width="37" height="37" fill="#000000"/><rect x="1045" y="46" width="37" height="37" fill="#000000"/><rect x="1082" y="46" width="37" height="37" fill="#000000"/><rect x="46" y="83" width="37" height="37" fill="#000000"/><rect x="268" y="83" width="37" height="37" fill="#000000"/><rect x="416" y="83" width="37" height="37" fill="#000000"/><rect x="490" y="83" width="37" height="37" fill="#000000"/><rect x="527" y="83" width="37" height="37" fill="#000000"/><rect x="601" y="83" width="37" height="37" fill="#000000"/><rect x="638" y="83" width="37" height="37" fill="#000000"/><rect x="675" y="83" width="37" height="37" fill="#000000"/><rect x="712" y="83" width="37" height="37" fill="#000000"/><rect x="749" y="83" width="37" height="37" fill="#000000"/><rect x="786" y="83" width="37" height="37" fill="#000000"/><rect x="860" y="83" width="37" height="37" fill="#000000"/><rect x="1082" y="83" width="37" height="37" fill="#000000"/><rect x="46" y="120" width="37" height="37" fill="#000000"/><rect x="120" y="120" width="37" height="37" fill="#000000"/><rect x="157" y="120" width="37" height="37" fill="#000000"/><rect x="194" y="120" width="37" height="37" fill="#000000"/><rect x="268" y="120" width="37" height="37" fill="#000000"/><rect x="342" y="120" width="37" height="37" fill="#000000"/><rect x="416" y="120" width="37" height="37" fill="#000000"/><rect x="453" y="120" width="37" height="37" fill="#000000"/><rect x="601" y="120" width="37" height="37" fill="#000000"/><rect x="675" y="120" width="37" height="37" fill="#000000"/><rect x="712" y="120" width="37" height="37" fill="#000000"/><rect x="749" y="120" width="37" height="37" fill="#000000"/><rect x="860" y="120" width="37" height="37" fill="#000000"/><rect x="934" y="120" width="37" height="37" fill="#000000"/><rect x="971" y="120" width="37" height="37" fill="#000000"/><rect x="1008" y="120" width="37" height="37" fill="#000000"/><rect x="1082" y="120" width="37" height="37" fill="#000000"/><rect x="46" y="157" width="37" height="37" fill="#000000"/><rect x="120" y="157" width="37" height="37" fill="#000000"/><rect x="157" y="157" width="37" height="37" fill="#000000"/><rect x="194" y="157" width="37" height="37" fill="#000000"/><rect x="268" y="157" width="37" height="37" fill="#000000"/><rect x="342" y="157" width="37" height="37" fill="#000000"/><rect x="416" y="157" width="37" height="37" fill="#000000"/><rect x="490" y="157" width="37" height="37" fill="#000000"/><rect x="564" y="157" width="37" height="37" fill="#000000"/><rect x="601" y="157" width="37" height="37" fill="#000000"/><rect x="638" y="157" width="37" height="37" fill="#000000"/><rect x="675" y="157" width="37" height="37" fill="#000000"/><rect x="786" y="157" width="37" height="37" fill="#000000"/><rect x="860" y="157" width="37" height="37" fill="#000000"/><rect x="934" y="157" width="37" height="37" fill="#000000"/><rect x="971" y="157" width="37" height="37" fill="#000000"/><rect x="1008" y="157" width="37" height="37" fill="#000000"/><rect x="1082" y="157" width="37" height="37" fill="#000000"/><rect x="46" y="194" width="37" height="37" fill="#000000"/><rect x="120" y="194" width="37" height="37" fill="#000000"/><rect x="157" y="194" width="37" height="37" fill="#000000"/><rect x="194" y="194" width="37" height="37" fill="#000000"/><rect x="268" y="194" width="37" height="37" fill="#000000"/><rect x="379" y="194" width="37" height="37" fill="#000000"/><rect x="601" y="194" width="37" height="37" fill="#000000"/><rect x="712" y="194" width="37" height="37" fill="#000000"/><rect x="860" y="194" width="37" height="37" fill="#000000"/><rect x="934" y="194" width="37" height="37" fill="#000000"/><rect x="971" y="194" width="37" height="37" fill="#000000"/><rect x="1008" y="194" width="37" height="37" fill="#000000"/><rect x="1082" y="194" width="37" height="37" fill="#000000"/><rect x="46" y="231" width="37" height="37" fill="#000000"/><rect x="268" y="231" width="37" height="37" fill="#000000"/><rect x="564" y="231" width="37" height="37" fill="#000000"/><rect x="638" y="231" width="37" height="37" fill="#000000"/><rect x="786" y="231" width="37" height="37" fill="#000000"/><rect x="860" y="231" width="37" height="37" fill="#000000"/><rect x="1082" y="231" width="37" height="37" fill="#000000"/><rect x="46" y="268" width="37" height="37" fill="#000000"/><rect x="83" y="268" width="37" height="37" fill="#000000"/><rect x="120" y="268" width="37" height="37" fill="#000000"/><rect x="157" y="268" width="37" height="37" fill="#000000"/><rect x="194" y="268" width="37" height="37" fill="#000000"/><rect x="231" y="268" width="37" height="37" fill="#000000"/><rect x="268" y="268" width="37" height="37" fill="#000000"/><rect x="342" y="268" width="37" height="37" fill="#000000"/><rect x="416" y="268" width="37" height="37" fill="#000000"/><rect x="490" y="268" width="37" height="37" fill="#000000"/><rect x="564" y="268" width="37" height="37" fill="#000000"/><rect x="638" y="268" width="37" height="37" fill="#000000"/><rect x="712" y="268" width="37" height="37" fill="#000000"/><rect x="786" y="268" width="37" height="37" fill="#000000"/><rect x="860" y="268" width="37" height="37" fill="#000000"/><rect x="897" y="268" width="37" height="37" fill="#000000"/><rect x="934" y="268" width="37" height="37" fill="#000000"/><rect x="971" y="268" width="37" height="37" fill="#000000"/><rect x="1008" y="268" width="37" height="37" fill="#000000"/><rect x="1045" y="268" width="37" height="37" fill="#000000"/><rect x="1082" y="268" width="37" height="37" fill="#000000"/><rect x="416" y="305" width="37" height="37" fill="#000000"/><rect x="453" y="305" width="37" height="37" fill="#000000"/><rect x="490" y="305" width="37" height="37" fill="#000000"/><rect x="527" y="305" width="37" height="37" fill="#000000"/><rect x="675" y="305" width="37" height="37" fill="#000000"/><rect x="712" y="305" width="37" height="37" fill="#000000"/><rect x="157" y="342" width="37" height="37" fill="#000000"/><rect x="194" y="342" width="37" height="37" fill="#000000"/><rect x="268" y="342" width="37" height="37" fill="#000000"/><rect x="305" y="342" width="37" height="37" fill="#000000"/><rect x="416" y="342" width="37" height="37" fill="#000000"/><rect x="453" y="342" width="37" height="37" fill="#000000"/><rect x="490" y="342" width="37" height="37" fill="#000000"/><rect x="601" y="342" width="37" height="37" fill="#000000"/><rect x="638" y="342" width="37" height="37" fill="#000000"/><rect x="749" y="342" width="37" height="37" fill="#000000"/><rect x="786" y="342" width="37" height="37" fill="#000000"/><rect x="971" y="342" width="37" height="37" fill="#000000"/><rect x="1008" y="342" width="37" height="37" fill="#000000"/><rect x="83" y="379" width="37" height="37" fill="#000000"/><rect x="194" y="379" width="37" height="37" fill="#000000"/><rect x="305" y="379" width="37" height="37" fill="#000000"/><rect x="342" y="379" width="37" height="37" fill="#000000"/><rect x="416" y="379" width="37" height="37" fill="#000000"/><rect x="490" y="379" width="37" height="37" fill="#000000"/><rect x="638" y="379" width="37" height="37" fill="#000000"/><rect x="712" y="379" width="37" height="37" fill="#000000"/><rect x="749" y="379" width="37" height="37" fill="#000000"/><rect x="786" y="379" width="37" height="37" fill="#000000"/><rect x="823" y="379" width="37" height="37" fill="#000000"/><rect x="897" y="379" width="37" height="37" fill="#000000"/><rect x="1008" y="379" width="37" height="37" fill="#000000"/><rect x="1045" y="379" width="37" height="37" fill="#000000"/><rect x="1082" y="379" width="37" height="37" fill="#000000"/><rect x="83" y="416" width="37" height="37" fill="#000000"/><rect x="120" y="416" width="37" height="37" fill="#000000"/><rect x="194" y="416" width="37" height="37" fill="#000000"/><rect x="268" y="416" width="37" height="37" fill="#000000"/><rect x="416" y="416" width="37" height="37" fill="#000000"/><rect x="490" y="416" width="37" height="37" fill="#000000"/><rect x="564" y="416" width="37" height="37" fill="#000000"/><rect x="601" y="416" width="37" height="37" fill="#000000"/><rect x="712" y="416" width="37" height="37" fill="#000000"/><rect x="934" y="416" width="37" height="37" fill="#000000"/><rect x="83" y="453" width="37" height="37" fill="#000000"/><rect x="157" y="453" width="37" height="37" fill="#000000"/><rect x="231" y="453" width="37" height="37" fill="#000000"/><rect x="305" y="453" width="37" height="37" fill="#000000"/><rect x="342" y="453" width="37" height="37" fill="#000000"/><rect x="453" y="453" width="37" height="37" fill="#000000"/><rect x="490" y="453" width="37" height="37" fill="#000000"/><rect x="527" y="453" width="37" height="37" fill="#000000"/><rect x="564" y="453" width="37" height="37" fill="#000000"/><rect x="601" y="453" width="37" height="37" fill="#000000"/><rect x="712" y="453" width="37" height="37" fill="#000000"/><rect x="749" y="453" width="37" height="37" fill="#000000"/><rect x="786" y="453" width="37" height="37" fill="#000000"/><rect x="823" y="453" width="37" height="37" fill="#000000"/><rect x="934" y="453" width="37" height="37" fill="#000000"/><rect x="971" y="453" width="37" height="37" fill="#000000"/><rect x="1008" y="453" width="37" height="37" fill="#000000"/><rect x="1045" y="453" width="37" height="37" fill="#000000"/><rect x="1082" y="453" width="37" height="37" fill="#000000"/><rect x="83" y="490" width="37" height="37" fill="#000000"/><rect x="194" y="490" width="37" height="37" fill="#000000"/><rect x="268" y="490" width="37" height="37" fill="#000000"/><rect x="305" y="490" width="37" height="37" fill="#000000"/><rect x="379" y="490" width="37" height="37" fill="#000000"/><rect x="490" y="490" width="37" height="37" fill="#000000"/><rect x="564" y="490" width="37" height="37" fill="#000000"/><rect x="675" y="490" width="37" height="37" fill="#000000"/><rect x="712" y="490" width="37" height="37" fill="#000000"/><rect x="749" y="490" width="37" height="37" fill="#000000"/><rect x="823" y="490" width="37" height="37" fill="#000000"/><rect x="860" y="490" width="37" height="37" fill="#000000"/><rect x="897" y="490" width="37" height="37" fill="#000000"/><rect x="934" y="490" width="37" height="37" fill="#000000"/><rect x="1045" y="490" width="37" height="37" fill="#000000"/><rect x="1082" y="490" width="37" height="37" fill="#000000"/><rect x="46" y="527" width="37" height="37" fill="#000000"/><rect x="83" y="527" width="37" height="37" fill="#000000"/><rect x="231" y="527" width="37" height="37" fill="#000000"/><rect x="379" y="527" width="37" height="37" fill="#000000"/><rect x="453" y="527" width="37" height="37" fill="#000000"/><rect x="490" y="527" width="37" height="37" fill="#000000"/><rect x="601" y="527" width="37" height="37" fill="#000000"/><rect x="638" y="527" width="37" height="37" fill="#000000"/><rect x="712" y="527" width="37" height="37" fill="#000000"/><rect x="823" y="527" width="37" height="37" fill="#000000"/><rect x="860" y="527" width="37" height="37" fill="#000000"/><rect x="934" y="527" width="37" height="37" fill="#000000"/><rect x="1008" y="527" width="37" height="37" fill="#000000"/><rect x="1045" y="527" width="37" height="37" fill="#000000"/><rect x="46" y="564" width="37" height="37" fill="#000000"/><rect x="120" y="564" width="37" height="37" fill="#000000"/><rect x="268" y="564" width="37" height="37" fill="#000000"/><rect x="342" y="564" width="37" height="37" fill="#000000"/><rect x="453" y="564" width="37" height="37" fill="#000000"/><rect x="601" y="564" width="37" height="37" fill="#000000"/><rect x="638" y="564" width="37" height="37" fill="#000000"/><rect x="675" y="564" width="37" height="37" fill="#000000"/><rect x="860" y="564" width="37" height="37" fill="#000000"/><rect x="897" y="564" width="37" height="37" fill="#000000"/><rect x="971" y="564" width="37" height="37" fill="#000000"/><rect x="1008" y="564" width="37" height="37" fill="#000000"/><rect x="1082" y="564" width="37" height="37" fill="#000000"/><rect x="46" y="601" width="37" height="37" fill="#000000"/><rect x="83" y="601" width="37" height="37" fill="#000000"/><rect x="157" y="601" width="37" height="37" fill="#000000"/><rect x="194" y="601" width="37" height="37" fill="#000000"/><rect x="305" y="601" width="37" height="37" fill="#000000"/><rect x="342" y="601" width="37" height="37" fill="#000000"/><rect x="416" y="601" width="37" height="37" fill="#000000"/><rect x="453" y="601" width="37" height="37" fill="#000000"/><rect x="490" y="601" width="37" height="37" fill="#000000"/><rect x="601" y="601" width="37" height="37" fill="#000000"/><rect x="712" y="601" width="37" height="37" fill="#000000"/><rect x="749" y="601" width="37" height="37" fill="#000000"/><rect x="786" y="601" width="37" height="37" fill="#000000"/><rect x="860" y="601" width="37" height="37" fill="#000000"/><rect x="897" y="601" width="37" height="37" fill="#000000"/><rect x="934" y="601" width="37" height="37" fill="#000000"/><rect x="46" y="638" width="37" height="37" fill="#000000"/><rect x="120" y="638" width="37" height="37" fill="#000000"/><rect x="157" y="638" width="37" height="37" fill="#000000"/><rect x="231" y="638" width="37" height="37" fill="#000000"/><rect x="268" y="638" width="37" height="37" fill="#000000"/><rect x="379" y="638" width="37" height="37" fill="#000000"/><rect x="453" y="638" width="37" height="37" fill="#000000"/><rect x="490" y="638" width="37" height="37" fill="#000000"/><rect x="527" y="638" width="37" height="37" fill="#000000"/><rect x="860" y="638" width="37" height="37" fill="#000000"/><rect x="1008" y="638" width="37" height="37" fill="#000000"/><rect x="46" y="675" width="37" height="37" fill="#000000"/><rect x="83" y="675" width="37" height="37" fill="#000000"/><rect x="194" y="675" width="37" height="37" fill="#000000"/><rect x="231" y="675" width="37" height="37" fill="#000000"/><rect x="453" y="675" width="37" height="37" fill="#000000"/><rect x="490" y="675" width="37" height="37" fill="#000000"/><rect x="527" y="675" width="37" height="37" fill="#000000"/><rect x="564" y="675" width="37" height="37" fill="#000000"/><rect x="675" y="675" width="37" height="37" fill="#000000"/><rect x="749" y="675" width="37" height="37" fill="#000000"/><rect x="786" y="675" width="37" height="37" fill="#000000"/><rect x="934" y="675" width="37" height="37" fill="#000000"/><rect x="971" y="675" width="37" height="37" fill="#000000"/><rect x="1082" y="675" width="37" height="37" fill="#000000"/><rect x="46" y="712" width="37" height="37" fill="#000000"/><rect x="83" y="712" width="37" height="37" fill="#000000"/><rect x="120" y="712" width="37" height="37" fill="#000000"/><rect x="157" y="712" width="37" height="37" fill="#000000"/><rect x="268" y="712" width="37" height="37" fill="#000000"/><rect x="342" y="712" width="37" height="37" fill="#000000"/><rect x="453" y="712" width="37" height="37" fill="#000000"/><rect x="490" y="712" width="37" height="37" fill="#000000"/><rect x="564" y="712" width="37" height="37" fill="#000000"/><rect x="638" y="712" width="37" height="37" fill="#000000"/><rect x="675" y="712" width="37" height="37" fill="#000000"/><rect x="749" y="712" width="37" height="37" fill="#000000"/><rect x="823" y="712" width="37" height="37" fill="#000000"/><rect x="860" y="712" width="37" height="37" fill="#000000"/><rect x="897" y="712" width="37" height="37" fill="#000000"/><rect x="934" y="712" width="37" height="37" fill="#000000"/><rect x="971" y="712" width="37" height="37" fill="#000000"/><rect x="1008" y="712" width="37" height="37" fill="#000000"/><rect x="1082" y="712" width="37" height="37" fill="#000000"/><rect x="46" y="749" width="37" height="37" fill="#000000"/><rect x="83" y="749" width="37" height="37" fill="#000000"/><rect x="157" y="749" width="37" height="37" fill="#000000"/><rect x="194" y="749" width="37" height="37" fill="#000000"/><rect x="231" y="749" width="37" height="37" fill="#000000"/><rect x="305" y="749" width="37" height="37" fill="#000000"/><rect x="342" y="749" width="37" height="37" fill="#000000"/><rect x="416" y="749" width="37" height="37" fill="#000000"/><rect x="527" y="749" width="37" height="37" fill="#000000"/><rect x="564" y="749" width="37" height="37" fill="#000000"/><rect x="601" y="749" width="37" height="37" fill="#000000"/><rect x="823" y="749" width="37" height="37" fill="#000000"/><rect x="860" y="749" width="37" height="37" fill="#000000"/><rect x="897" y="749" width="37" height="37" fill="#000000"/><rect x="934" y="749" width="37" height="37" fill="#000000"/><rect x="971" y="749" width="37" height="37" fill="#000000"/><rect x="1082" y="749" width="37" height="37" fill="#000000"/><rect x="46" y="786" width="37" height="37" fill="#000000"/><rect x="83" y="786" width="37" height="37" fill="#000000"/><rect x="120" y="786" width="37" height="37" fill="#000000"/><rect x="194" y="786" width="37" height="37" fill="#000000"/><rect x="231" y="786" width="37" height="37" fill="#000000"/><rect x="268" y="786" width="37" height="37" fill="#000000"/><rect x="379" y="786" width="37" height="37" fill="#000000"/><rect x="416" y="786" width="37" height="37" fill="#000000"/><rect x="453" y="786" width="37" height="37" fill="#000000"/><rect x="527" y="786" width="37" height="37" fill="#000000"/><rect x="564" y="786" width="37" height="37" fill="#000000"/><rect x="749" y="786" width="37" height="37" fill="#000000"/><rect x="786" y="786" width="37" height="37" fill="#000000"/><rect x="823" y="786" width="37" height="37" fill="#000000"/><rect x="860" y="786" width="37" height="37" fill="#000000"/><rect x="897" y="786" width="37" height="37" fill="#000000"/><rect x="934" y="786" width="37" height="37" fill="#000000"/><rect x="1045" y="786" width="37" height="37" fill="#000000"/><rect x="342" y="823" width="37" height="37" fill="#000000"/><rect x="379" y="823" width="37" height="37" fill="#000000"/><rect x="416" y="823" width="37" height="37" fill="#000000"/><rect x="490" y="823" width="37" height="37" fill="#000000"/><rect x="601" y="823" width="37" height="37" fill="#000000"/><rect x="675" y="823" width="37" height="37" fill="#000000"/><rect x="712" y="823" width="37" height="37" fill="#000000"/><rect x="749" y="823" width="37" height="37" fill="#000000"/><rect x="786" y="823" width="37" height="37" fill="#000000"/><rect x="934" y="823" width="37" height="37" fill="#000000"/><rect x="971" y="823" width="37" height="37" fill="#000000"/><rect x="1008" y="823" width="37" height="37" fill="#000000"/><rect x="1045" y="823" width="37" height="37" fill="#000000"/><rect x="1082" y="823" width="37" height="37" fill="#000000"/><rect x="46" y="860" width="37" height="37" fill="#000000"/><rect x="83" y="860" width="37" height="37" fill="#000000"/><rect x="120" y="860" width="37" height="37" fill="#000000"/><rect x="157" y="860" width="37" height="37" fill="#000000"/><rect x="194" y="860" width="37" height="37" fill="#000000"/><rect x="231" y="860" width="37" height="37" fill="#000000"/><rect x="268" y="860" width="37" height="37" fill="#000000"/><rect x="342" y="860" width="37" height="37" fill="#000000"/><rect x="416" y="860" width="37" height="37" fill="#000000"/><rect x="490" y="860" width="37" height="37" fill="#000000"/><rect x="564" y="860" width="37" height="37" fill="#000000"/><rect x="601" y="860" width="37" height="37" fill="#000000"/><rect x="638" y="860" width="37" height="37" fill="#000000"/><rect x="675" y="860" width="37" height="37" fill="#000000"/><rect x="712" y="860" width="37" height="37" fill="#000000"/><rect x="749" y="860" width="37" height="37" fill="#000000"/><rect x="786" y="860" width="37" height="37" fill="#000000"/><rect x="860" y="860" width="37" height="37" fill="#000000"/><rect x="934" y="860" width="37" height="37" fill="#000000"/><rect x="971" y="860" width="37" height="37" fill="#000000"/><rect x="1082" y="860" width="37" height="37" fill="#000000"/><rect x="46" y="897" width="37" height="37" fill="#000000"/><rect x="268" y="897" width="37" height="37" fill="#000000"/><rect x="416" y="897" width="37" height="37" fill="#000000"/><rect x="453" y="897" width="37" height="37" fill="#000000"/><rect x="490" y="897" width="37" height="37" fill="#000000"/><rect x="601" y="897" width="37" height="37" fill="#000000"/><rect x="675" y="897" width="37" height="37" fill="#000000"/><rect x="749" y="897" width="37" height="37" fill="#000000"/><rect x="786" y="897" width="37" height="37" fill="#000000"/><rect x="934" y="897" width="37" height="37" fill="#000000"/><rect x="971" y="897" width="37" height="37" fill="#000000"/><rect x="46" y="934" width="37" height="37" fill="#000000"/><rect x="120" y="934" width="37" height="37" fill="#000000"/><rect x="157" y="934" width="37" height="37" fill="#000000"/><rect x="194" y="934" width="37" height="37" fill="#000000"/><rect x="268" y="934" width="37" height="37" fill="#000000"/><rect x="342" y="934" width="37" height="37" fill="#000000"/><rect x="564" y="934" width="37" height="37" fill="#000000"/><rect x="638" y="934" width="37" height="37" fill="#000000"/><rect x="675" y="934" width="37" height="37" fill="#000000"/><rect x="712" y="934" width="37" height="37" fill="#000000"/><rect x="786" y="934" width="37" height="37" fill="#000000"/><rect x="823" y="934" width="37" height="37" fill="#000000"/><rect x="860" y="934" width="37" height="37" fill="#000000"/><rect x="897" y="934" width="37" height="37" fill="#000000"/><rect x="934" y="934" width="37" height="37" fill="#000000"/><rect x="971" y="934" width="37" height="37" fill="#000000"/><rect x="1008" y="934" width="37" height="37" fill="#000000"/><rect x="1082" y="934" width="37" height="37" fill="#000000"/><rect x="46" y="971" width="37" height="37" fill="#000000"/><rect x="120" y="971" width="37" height="37" fill="#000000"/><rect x="157" y="971" width="37" height="37" fill="#000000"/><rect x="194" y="971" width="37" height="37" fill="#000000"/><rect x="268" y="971" width="37" height="37" fill="#000000"/><rect x="342" y="971" width="37" height="37" fill="#000000"/><rect x="379" y="971" width="37" height="37" fill="#000000"/><rect x="453" y="971" width="37" height="37" fill="#000000"/><rect x="527" y="971" width="37" height="37" fill="#000000"/><rect x="564" y="971" width="37" height="37" fill="#000000"/><rect x="638" y="971" width="37" height="37" fill="#000000"/><rect x="749" y="971" width="37" height="37" fill="#000000"/><rect x="860" y="971" width="37" height="37" fill="#000000"/><rect x="934" y="971" width="37" height="37" fill="#000000"/><rect x="1008" y="971" width="37" height="37" fill="#000000"/><rect x="1045" y="971" width="37" height="37" fill="#000000"/><rect x="46" y="1008" width="37" height="37" fill="#000000"/><rect x="120" y="1008" width="37" height="37" fill="#000000"/><rect x="157" y="1008" width="37" height="37" fill="#000000"/><rect x="194" y="1008" width="37" height="37" fill="#000000"/><rect x="268" y="1008" width="37" height="37" fill="#000000"/><rect x="453" y="1008" width="37" height="37" fill="#000000"/><rect x="675" y="1008" width="37" height="37" fill="#000000"/><rect x="749" y="1008" width="37" height="37" fill="#000000"/><rect x="823" y="1008" width="37" height="37" fill="#000000"/><rect x="897" y="1008" width="37" height="37" fill="#000000"/><rect x="934" y="1008" width="37" height="37" fill="#000000"/><rect x="1045" y="1008" width="37" height="37" fill="#000000"/><rect x="1082" y="1008" width="37" height="37" fill="#000000"/><rect x="46" y="1045" width="37" height="37" fill="#000000"/><rect x="268" y="1045" width="37" height="37" fill="#000000"/><rect x="379" y="1045" width="37" height="37" fill="#000000"/><rect x="490" y="1045" width="37" height="37" fill="#000000"/><rect x="601" y="1045" width="37" height="37" fill="#000000"/><rect x="638" y="1045" width="37" height="37" fill="#000000"/><rect x="749" y="1045" width="37" height="37" fill="#000000"/><rect x="786" y="1045" width="37" height="37" fill="#000000"/><rect x="823" y="1045" width="37" height="37" fill="#000000"/><rect x="860" y="1045" width="37" height="37" fill="#000000"/><rect x="897" y="1045" width="37" height="37" fill="#000000"/><rect x="971" y="1045" width="37" height="37" fill="#000000"/><rect x="1008" y="1045" width="37" height="37" fill="#000000"/><rect x="1045" y="1045" width="37" height="37" fill="#000000"/><rect x="46" y="1082" width="37" height="37" fill="#000000"/><rect x="83" y="1082" width="37" height="37" fill="#000000"/><rect x="120" y="1082" width="37" height="37" fill="#000000"/><rect x="157" y="1082" width="37" height="37" fill="#000000"/><rect x="194" y="1082" width="37" height="37" fill="#000000"/><rect x="231" y="1082" width="37" height="37" fill="#000000"/><rect x="268" y="1082" width="37" height="37" fill="#000000"/><rect x="379" y="1082" width="37" height="37" fill="#000000"/><rect x="416" y="1082" width="37" height="37" fill="#000000"/><rect x="453" y="1082" width="37" height="37" fill="#000000"/><rect x="490" y="1082" width="37" height="37" fill="#000000"/><rect x="564" y="1082" width="37" height="37" fill="#000000"/><rect x="638" y="1082" width="37" height="37" fill="#000000"/><rect x="712" y="1082" width="37" height="37" fill="#000000"/><rect x="749" y="1082" width="37" height="37" fill="#000000"/><rect x="786" y="1082" width="37" height="37" fill="#000000"/><rect x="823" y="1082" width="37" height="37" fill="#000000"/><rect x="860" y="1082" width="37" height="37" fill="#000000"/><rect x="934" y="1082" width="37" height="37" fill="#000000"/><rect x="1008" y="1082" width="37" height="37" fill="#000000"/></svg>
