<svg width="26" height="26" viewBox="0 0 26 26" fill="none" xmlns="http://www.w3.org/2000/svg">
<path d="M24.7452 0H1.62252C1.06645 0 0.617188 0.449258 0.617188 1.00533V24.128C0.617188 24.6841 1.06645 25.1333 1.62252 25.1333H24.7452C25.3013 25.1333 25.7505 24.6841 25.7505 24.128V1.00533C25.7505 0.449258 25.3013 0 24.7452 0ZM23.7399 23.1227H17.956V15.4005H21.2234L21.7135 11.6085H17.956V9.18623C17.956 8.08665 18.2608 7.33893 19.8348 7.33893H21.8423V3.94593C21.4936 3.89881 20.3029 3.79513 18.9143 3.79513C16.0176 3.79513 14.0352 5.56389 14.0352 8.80923V11.6053H10.7616V15.3973H14.0384V23.1227H2.62785V2.01067H23.7399V23.1227Z" fill="#00004D"/>
</svg>
