<svg width="26" height="26" viewBox="0 0 26 26" fill="none" xmlns="http://www.w3.org/2000/svg">
<path fill-rule="evenodd" clip-rule="evenodd" d="M7.71878 0.0754C9.05884 0.0137091 9.48611 0 12.8997 0C16.3132 0 16.7405 0.0148515 18.0794 0.0754C19.4183 0.135948 20.3323 0.349582 21.132 0.659179C21.9694 0.97563 22.7291 1.4703 23.3574 2.11006C23.9972 2.73725 24.4907 3.49582 24.806 4.33436C25.1168 5.13405 25.3293 6.04799 25.3909 7.38463C25.4526 8.72698 25.4663 9.15425 25.4663 12.5667C25.4663 15.9802 25.4515 16.4075 25.3909 17.7476C25.3304 19.0842 25.1168 19.9981 24.806 20.7978C24.4907 21.6365 23.9964 22.3963 23.3574 23.0244C22.7291 23.6642 21.9694 24.1577 21.132 24.473C20.3323 24.7838 19.4183 24.9962 18.0817 25.0579C16.7405 25.1196 16.3132 25.1333 12.8997 25.1333C9.48611 25.1333 9.05884 25.1185 7.71878 25.0579C6.38214 24.9974 5.4682 24.7838 4.66851 24.473C3.82988 24.1577 3.07005 23.6633 2.44192 23.0244C1.8026 22.3969 1.30786 21.6374 0.992187 20.799C0.68259 19.9993 0.470099 19.0853 0.408408 17.7487C0.346717 16.4064 0.333008 15.9791 0.333008 12.5667C0.333008 9.1531 0.347859 8.72584 0.408408 7.38692C0.468956 6.04799 0.68259 5.13405 0.992187 4.33436C1.30832 3.49591 1.80344 2.73646 2.44307 2.10892C3.0703 1.46973 3.82937 0.974994 4.66737 0.659179C5.46706 0.349582 6.381 0.137091 7.71764 0.0754H7.71878ZM17.9777 2.3374C16.6525 2.27685 16.255 2.26428 12.8997 2.26428C9.54437 2.26428 9.14681 2.27685 7.8216 2.3374C6.59578 2.39338 5.93089 2.59787 5.48763 2.77038C4.90156 2.99886 4.48229 3.26962 4.04246 3.70945C3.62553 4.11507 3.30466 4.60886 3.10339 5.15462C2.93088 5.59788 2.72639 6.26277 2.67041 7.48859C2.60986 8.8138 2.59729 9.21137 2.59729 12.5667C2.59729 15.922 2.60986 16.3195 2.67041 17.6447C2.72639 18.8706 2.93088 19.5355 3.10339 19.9787C3.30445 20.5237 3.62547 21.0183 4.04246 21.4239C4.44802 21.8409 4.94269 22.1619 5.48763 22.363C5.93089 22.5355 6.59578 22.74 7.8216 22.7959C9.14681 22.8565 9.54323 22.869 12.8997 22.869C16.2561 22.869 16.6525 22.8565 17.9777 22.7959C19.2036 22.74 19.8685 22.5355 20.3117 22.363C20.8978 22.1345 21.3171 21.8637 21.7569 21.4239C22.1739 21.0183 22.4949 20.5237 22.696 19.9787C22.8685 19.5355 23.073 18.8706 23.1289 17.6447C23.1895 16.3195 23.2021 15.922 23.2021 12.5667C23.2021 9.21137 23.1895 8.8138 23.1289 7.48859C23.073 6.26277 22.8685 5.59788 22.696 5.15462C22.4675 4.56855 22.1967 4.14928 21.7569 3.70945C21.3512 3.29255 20.8575 2.97169 20.3117 2.77038C19.8685 2.59787 19.2036 2.39338 17.9777 2.3374ZM11.2946 16.4406C12.191 16.8138 13.1891 16.8641 14.1186 16.5831C15.048 16.3021 15.851 15.7071 16.3905 14.8998C16.9299 14.0925 17.1724 13.1229 17.0764 12.1567C16.9805 11.1904 16.552 10.2875 15.8643 9.60208C15.4258 9.16393 14.8957 8.82844 14.3121 8.61976C13.7284 8.41108 13.1058 8.3344 12.489 8.39524C11.8721 8.45608 11.2765 8.65292 10.7448 8.97161C10.2132 9.29029 9.75886 9.72288 9.41448 10.2382C9.07011 10.7536 8.84428 11.3389 8.75326 11.952C8.66224 12.5651 8.70829 13.1908 8.8881 13.7839C9.0679 14.3771 9.37699 14.923 9.7931 15.3824C10.2092 15.8418 10.722 16.2032 11.2946 16.4406ZM8.33226 7.99925C8.93206 7.39945 9.64413 6.92367 10.4278 6.59906C11.2115 6.27445 12.0514 6.10737 12.8997 6.10737C13.7479 6.10737 14.5879 6.27444 15.3715 6.59905C16.1552 6.92367 16.8673 7.39945 17.4671 7.99925C18.0669 8.59906 18.5427 9.31112 18.8673 10.0948C19.1919 10.8785 19.359 11.7184 19.359 12.5667C19.359 13.4149 19.1919 14.2549 18.8673 15.0385C18.5427 15.8222 18.0669 16.5343 17.4671 17.1341C16.2557 18.3454 14.6128 19.026 12.8997 19.026C11.1866 19.026 9.54362 18.3454 8.33226 17.1341C7.12091 15.9227 6.44038 14.2798 6.44038 12.5667C6.44038 10.8536 7.12091 9.21061 8.33226 7.99925ZM20.7915 7.06932C20.9402 6.92911 21.0592 6.7605 21.1415 6.57348C21.2238 6.38646 21.2677 6.18482 21.2707 5.98051C21.2737 5.7762 21.2356 5.57337 21.1588 5.38403C21.082 5.19469 20.968 5.02268 20.8235 4.8782C20.679 4.73371 20.507 4.61969 20.3177 4.54287C20.1283 4.46605 19.9255 4.42801 19.7212 4.43099C19.5169 4.43397 19.3152 4.47791 19.1282 4.56021C18.9412 4.64251 18.7726 4.7615 18.6324 4.91014C18.3597 5.19921 18.2104 5.58317 18.2162 5.98051C18.222 6.37786 18.3824 6.7573 18.6634 7.0383C18.9444 7.31929 19.3238 7.47971 19.7212 7.48551C20.1185 7.4913 20.5025 7.34201 20.7915 7.06932Z" fill="#00004D"/>
</svg>
