<svg width="34" height="25" viewBox="0 0 34 25" fill="none" xmlns="http://www.w3.org/2000/svg">
<path d="M33.6843 12.4638C33.6843 12.383 33.6843 12.2911 33.6806 12.1845C33.677 11.8868 33.6696 11.5523 33.6623 11.1958C33.6329 10.1703 33.5814 9.14846 33.5005 8.18545C33.3903 6.85856 33.2285 5.75221 33.008 4.92153C32.7753 4.05464 32.3191 3.26401 31.685 2.62868C31.051 1.99334 30.2613 1.53555 29.3949 1.30107C28.3547 1.02172 26.3184 0.848967 23.4515 0.742375C22.0878 0.690916 20.6286 0.657836 19.1694 0.639458C18.6585 0.632107 18.1843 0.628431 17.758 0.624756H16.6773C16.251 0.628431 15.7768 0.632107 15.2659 0.639458C13.8067 0.657836 12.3475 0.690916 10.9838 0.742375C8.11687 0.852643 6.07691 1.0254 5.0404 1.30107C4.17369 1.53498 3.38369 1.99257 2.74956 2.628C2.11543 3.26342 1.65944 4.05435 1.42729 4.92153C1.20307 5.75221 1.04502 6.85856 0.934756 8.18545C0.853893 9.14846 0.802435 10.1703 0.77303 11.1958C0.762003 11.5523 0.758328 11.8868 0.754652 12.1845C0.754652 12.2911 0.750977 12.383 0.750977 12.4638V12.6697C0.750977 12.7505 0.750977 12.8424 0.754652 12.949C0.758328 13.2468 0.765679 13.5812 0.77303 13.9378C0.802435 14.9633 0.853893 15.9851 0.934756 16.9481C1.04502 18.275 1.20675 19.3813 1.42729 20.212C1.89776 21.9726 3.27979 23.362 5.0404 23.8325C6.07691 24.1118 8.11687 24.2846 10.9838 24.3912C12.3475 24.4426 13.8067 24.4757 15.2659 24.4941C15.7768 24.5014 16.251 24.5051 16.6773 24.5088H17.758C18.1843 24.5051 18.6585 24.5014 19.1694 24.4941C20.6286 24.4757 22.0878 24.4426 23.4515 24.3912C26.3184 24.2809 28.3584 24.1081 29.3949 23.8325C31.1555 23.362 32.5375 21.9763 33.008 20.212C33.2322 19.3813 33.3903 18.275 33.5005 16.9481C33.5814 15.9851 33.6329 14.9633 33.6623 13.9378C33.6733 13.5812 33.677 13.2468 33.6806 12.949C33.6806 12.8424 33.6843 12.7505 33.6843 12.6697V12.4638ZM31.0379 12.655C31.0379 12.7322 31.0379 12.8167 31.0342 12.9159C31.0305 13.2026 31.0232 13.5187 31.0158 13.8606C30.9901 14.8383 30.9386 15.816 30.8615 16.7239C30.7622 17.9074 30.6225 18.8778 30.4498 19.5283C30.2219 20.3774 29.5529 21.05 28.7076 21.2743C27.9357 21.4801 25.9913 21.6455 23.3485 21.7447C22.0106 21.7962 20.5698 21.8293 19.1326 21.8476C18.6291 21.855 18.1623 21.8587 17.7433 21.8587H16.692L15.3027 21.8476C13.8655 21.8293 12.4283 21.7962 11.0868 21.7447C8.444 21.6418 6.49593 21.4801 5.72773 21.2743C4.88235 21.0464 4.21339 20.3774 3.9855 19.5283C3.81275 18.8778 3.67307 17.9074 3.57383 16.7239C3.49665 15.816 3.44886 14.8383 3.41946 13.8606C3.40843 13.5187 3.40476 13.199 3.40108 12.9159C3.40108 12.8167 3.39741 12.7285 3.39741 12.655V12.4786C3.39741 12.4014 3.39741 12.3168 3.40108 12.2176C3.40476 11.9309 3.41211 11.6148 3.41946 11.273C3.44519 10.2952 3.49665 9.31754 3.57383 8.40967C3.67307 7.22612 3.81275 6.25577 3.9855 5.60519C4.21339 4.75612 4.88235 4.08349 5.72773 3.85928C6.49961 3.65345 8.444 3.48804 11.0868 3.3888C12.4247 3.33734 13.8655 3.30426 15.3027 3.28589C15.8062 3.27854 16.273 3.27486 16.692 3.27486H17.7433L19.1326 3.28589C20.5698 3.30426 22.0069 3.33734 23.3485 3.3888C25.9913 3.49172 27.9394 3.65345 28.7076 3.85928C29.5529 4.08717 30.2219 4.75612 30.4498 5.60519C30.6225 6.25577 30.7622 7.22612 30.8615 8.40967C30.9386 9.31754 30.9864 10.2952 31.0158 11.273C31.0269 11.6148 31.0305 11.9346 31.0342 12.2176C31.0342 12.3168 31.0379 12.405 31.0379 12.4786V12.655ZM13.9464 17.4921L22.4737 12.53L13.9464 7.64147V17.4921Z" fill="#00004D"/>
</svg>
