<svg width="112" height="59" viewBox="0 0 112 59" fill="none" xmlns="http://www.w3.org/2000/svg">
<path fill-rule="evenodd" clip-rule="evenodd" d="M28.2469 0.020504C28.1987 0.0949451 26.6088 2.87517 26.0267 3.90277C25.8324 4.24581 25.3712 5.05479 25.0018 5.70051C24.6323 6.34623 24.1802 7.1387 23.997 7.46156C23.8138 7.78442 23.3525 8.5934 22.9719 9.2593C22.5913 9.9252 22.1208 10.7507 21.9263 11.0937C21.7319 11.4368 21.2614 12.2623 20.8808 12.9282C20.5003 13.594 19.7133 14.9726 19.132 15.9916C18.5507 17.0107 17.6517 18.5853 17.1343 19.4908C16.6168 20.3963 16.2 21.1431 16.2079 21.1503C16.2158 21.1576 16.4473 20.953 16.7222 20.6958C17.7997 19.6878 18.5204 19.0099 19.6759 17.9178C20.7712 16.8824 21.9822 15.7399 25.703 12.2314C26.4093 11.5653 27.228 10.7969 27.5224 10.5238C27.8167 10.2507 28.0856 9.99068 28.1199 9.94596C28.1543 9.90124 28.2039 9.86587 28.2303 9.86734C28.2567 9.86881 28.8934 10.497 29.6453 11.2633C30.3971 12.0297 31.1133 12.7591 31.2369 12.8842C32.8798 14.5474 36.6869 18.4096 37.1032 18.8354C38.3404 20.101 39.4059 21.1669 39.4205 21.1535C39.4292 21.1457 39.2296 20.7529 38.9772 20.2806C38.7247 19.8084 38.1839 18.7864 37.7753 18.0095C36.8633 16.2754 35.6052 13.888 35.2135 13.1483C35.0533 12.8456 34.5739 11.9376 34.1484 11.1304C33.7228 10.3233 32.8997 8.76309 32.3193 7.66335C31.7389 6.56361 30.9425 5.05296 30.5495 4.30635C30.1565 3.55974 29.6682 2.63519 29.4643 2.25179C29.2604 1.8684 28.9127 1.208 28.6917 0.78425C28.4706 0.360497 28.2844 0.00858028 28.278 0.00215978C28.2715 -0.00422402 28.2575 0.0040309 28.2469 0.020504ZM27.8351 16.314C27.3466 16.7474 25.8785 18.0628 23.9764 19.7716C23.2909 20.3874 21.6807 21.8314 20.3982 22.9805C19.1157 24.1296 17.5779 25.5084 16.9808 26.0446C16.3838 26.5808 14.846 27.9594 13.5635 29.1082C12.2809 30.257 10.7522 31.6272 10.1662 32.1531C9.5802 32.679 8.04238 34.0577 6.7488 35.2169C4.08151 37.6071 2.54385 38.986 1.12423 40.2608C0.584682 40.7452 0.108258 41.1719 0.0655209 41.2089C0.0227433 41.2459 -0.00624467 41.2815 0.00115296 41.2879C0.0129731 41.2983 1.50874 41.2682 7.97503 41.1275L9.62342 41.0916L11.7562 43.0428C12.9293 44.1159 16.1758 47.0989 18.9708 49.6717C21.7658 52.2445 24.9618 55.1826 26.073 56.2007L28.0933 58.0519L29.3918 56.8794C30.106 56.2346 31.215 55.2364 31.8563 54.6613C32.4977 54.0862 33.6466 53.0539 34.4095 52.3673C35.1724 51.6807 37.1133 49.9405 38.7228 48.5003C40.3321 47.06 41.6438 45.8693 41.6376 45.8542C41.595 45.7513 26.8844 32.3595 26.7776 32.3264C26.76 32.321 25.9055 33.0736 24.8788 33.999L23.0121 35.6816L28.6604 40.8602C31.767 43.7085 34.3143 46.0541 34.3212 46.0729C34.3315 46.1012 30.2749 49.8027 28.5884 51.3038L28.0944 51.7434L27.3608 51.0653C25.8034 49.6256 16.3128 40.8946 14.2089 38.9661L11.9955 36.9372L13.9454 35.1728C15.0179 34.2024 16.9356 32.4651 18.2071 31.3122C21.371 28.4432 25.8398 24.3972 27.1554 23.2104L28.243 22.2294L31.9591 25.6502C34.0029 27.5317 37.6256 30.8639 40.0095 33.0552L44.3438 37.0393L45.92 37.0631C46.7868 37.0763 48.3283 37.0977 49.3455 37.1107L51.1949 37.1343L49.8072 35.8543C49.044 35.1504 47.7504 33.9554 46.9326 33.1988C46.1148 32.4422 45.4366 31.8148 45.4255 31.8046C43.3048 29.8464 36.7298 23.7616 33.9086 21.1464C32.4065 19.7541 30.5364 18.0261 29.7526 17.3065C28.9689 16.5868 28.3161 15.9811 28.302 15.9603C28.288 15.9395 28.0779 16.0987 27.8351 16.314ZM99.4922 25.9345C95.696 26.1915 92.2816 28.0722 90.2428 31.0292C88.9306 32.9323 88.3026 35.1062 88.3762 37.4911C88.4126 38.6703 88.5937 39.6231 88.9864 40.7015C90.1536 43.9068 92.6208 46.309 96.043 47.5722C96.9722 47.9151 97.8532 48.1272 98.998 48.2832C99.5698 48.3612 101.629 48.3503 102.315 48.2657C104.621 47.9813 106.469 47.2824 107.984 46.1216C110.541 44.1622 111.904 41.3143 111.99 37.7479C112.009 36.9467 112.005 36.8767 111.934 36.7574C111.82 36.5686 111.534 36.4064 111.229 36.3579C110.873 36.3013 101.077 36.3004 100.788 36.3569C100.495 36.4145 100.235 36.5898 100.087 36.8307L99.9629 37.0325L99.9507 38.1636C99.937 39.4305 99.9514 39.5231 100.204 39.7921C100.28 39.8739 100.436 39.9777 100.554 40.0266L100.767 40.1144L103.41 40.1248C104.864 40.1305 106.054 40.1427 106.054 40.1518C106.054 40.161 105.997 40.3297 105.928 40.5267C105.431 41.9454 104.217 43.0794 102.643 43.5956C101.893 43.8415 100.719 43.9625 99.9026 43.8781C98.1738 43.6992 96.822 43.0036 95.6816 41.7061C94.8446 40.7539 94.3121 39.5953 94.1321 38.335C93.9758 37.241 94.0343 36.0765 94.2925 35.1424C94.6535 33.8362 95.3355 32.7594 96.3718 31.8594C97.2302 31.114 98.118 30.6835 99.2603 30.4589C99.7875 30.3552 101.218 30.3652 101.78 30.4764C103.318 30.7809 104.366 31.4664 105.211 32.7204C105.514 33.1713 105.718 33.3608 106.054 33.5069L106.315 33.6205L108.381 33.6312C110.585 33.6427 110.749 33.6326 111.025 33.4689C111.419 33.236 111.499 32.8681 111.28 32.2997C110.985 31.5327 110.293 30.388 109.665 29.6279C109.346 29.2426 108.339 28.3229 107.923 28.0382C106.254 26.8948 104.517 26.2633 102.339 26.0081C101.611 25.9228 100.203 25.8864 99.4922 25.9345ZM61.4328 26.3029C61.2338 26.3397 60.9665 26.4731 60.8359 26.6008C60.7872 26.6483 60.7058 26.7696 60.655 26.8702L60.5625 27.0532L60.5507 37.0142C60.5415 44.7022 60.5499 47.0244 60.5875 47.191C60.6579 47.5037 60.832 47.7197 61.1225 47.8548L61.3609 47.9657H63.374H65.3871L65.568 47.879C65.8152 47.7605 65.9194 47.6672 66.0444 47.4521L66.151 47.2686L66.1632 37.2526C66.172 30.0898 66.1629 27.1832 66.1314 27.0491C66.054 26.7194 65.8107 26.4657 65.4474 26.3354C65.3363 26.2956 64.9165 26.2835 63.4573 26.2777C62.4401 26.2737 61.5291 26.285 61.4328 26.3029ZM70.527 26.3023C70.1271 26.3753 69.7985 26.6362 69.6912 26.966C69.6015 27.2415 69.5988 29.7552 69.6878 30.0275C69.7616 30.2533 69.9401 30.4535 70.1844 30.5845L70.3724 30.6854L72.9053 30.7037L75.4382 30.7221L75.4583 38.977C75.4768 46.5933 75.4836 47.2424 75.5457 47.3673C75.6588 47.5947 75.9244 47.8264 76.1671 47.9093C76.3759 47.9806 76.4731 47.984 78.2695 47.984C79.9103 47.984 80.1795 47.9762 80.3585 47.9235C80.6209 47.8462 80.8533 47.6643 80.9728 47.4428L81.0668 47.2686L81.0869 38.9953L81.107 30.7221L83.6399 30.7037C85.5433 30.6899 86.2009 30.674 86.2861 30.6395C86.6261 30.5017 86.8395 30.2239 86.9169 29.8183C86.9483 29.6543 86.9581 29.1706 86.9473 28.3326C86.9336 27.2742 86.921 27.0651 86.8625 26.9228C86.7627 26.6803 86.585 26.5035 86.3228 26.386L86.0924 26.2828L78.3932 26.2773C74.1587 26.2743 70.6189 26.2855 70.527 26.3023Z" fill="white"/>
</svg>
