<svg width="29" height="29" viewBox="0 0 29 29" fill="none" xmlns="http://www.w3.org/2000/svg">
<path fill-rule="evenodd" clip-rule="evenodd" d="M8.52205 0.087C10.0683 0.0158182 10.5613 0 14.5 0C18.4387 0 18.9317 0.0171363 20.4766 0.087C22.0215 0.156864 23.0761 0.403364 23.9988 0.760591C24.965 1.12573 25.8416 1.6965 26.5666 2.43468C27.3048 3.15836 27.8743 4.03364 28.2381 5.00118C28.5966 5.92391 28.8418 6.97846 28.913 8.52073C28.9842 10.0696 29 10.5626 29 14.5C29 18.4387 28.9829 18.9317 28.913 20.478C28.8431 22.0202 28.5966 23.0748 28.2381 23.9975C27.8743 24.9652 27.3039 25.8419 26.5666 26.5666C25.8416 27.3048 24.965 27.8743 23.9988 28.2381C23.0761 28.5966 22.0215 28.8418 20.4793 28.913C18.9317 28.9842 18.4387 29 14.5 29C10.5613 29 10.0683 28.9829 8.52205 28.913C6.97977 28.8431 5.92523 28.5966 5.0025 28.2381C4.03485 27.8742 3.15813 27.3038 2.43336 26.5666C1.69568 25.8425 1.12482 24.9662 0.760591 23.9988C0.403364 23.0761 0.158182 22.0215 0.087 20.4793C0.0158182 18.9304 0 18.4374 0 14.5C0 10.5613 0.0171363 10.0683 0.087 8.52336C0.156864 6.97846 0.403364 5.92391 0.760591 5.00118C1.12536 4.03374 1.69666 3.15746 2.43468 2.43336C3.15842 1.69584 4.03426 1.12499 5.00118 0.760591C5.92391 0.403364 6.97846 0.158182 8.52073 0.087H8.52205ZM20.3593 2.697C18.8302 2.62714 18.3715 2.61264 14.5 2.61264C10.6285 2.61264 10.1698 2.62714 8.64068 2.697C7.22627 2.76159 6.45909 2.99755 5.94764 3.19659C5.27141 3.46023 4.78764 3.77264 4.28014 4.28014C3.79906 4.74816 3.42883 5.31792 3.19659 5.94764C2.99755 6.45909 2.76159 7.22627 2.697 8.64068C2.62714 10.1698 2.61264 10.6285 2.61264 14.5C2.61264 18.3715 2.62714 18.8302 2.697 20.3593C2.76159 21.7737 2.99755 22.5409 3.19659 23.0524C3.42859 23.6811 3.799 24.2519 4.28014 24.7199C4.74809 25.201 5.31886 25.5714 5.94764 25.8034C6.45909 26.0025 7.22627 26.2384 8.64068 26.303C10.1698 26.3729 10.6272 26.3874 14.5 26.3874C18.3728 26.3874 18.8302 26.3729 20.3593 26.303C21.7737 26.2384 22.5409 26.0025 23.0524 25.8034C23.7286 25.5398 24.2124 25.2274 24.7199 24.7199C25.201 24.2519 25.5714 23.6811 25.8034 23.0524C26.0025 22.5409 26.2384 21.7737 26.303 20.3593C26.3729 18.8302 26.3874 18.3715 26.3874 14.5C26.3874 10.6285 26.3729 10.1698 26.303 8.64068C26.2384 7.22627 26.0025 6.45909 25.8034 5.94764C25.5398 5.27141 25.2274 4.78764 24.7199 4.28014C24.2518 3.79909 23.6821 3.42887 23.0524 3.19659C22.5409 2.99755 21.7737 2.76159 20.3593 2.697ZM12.648 18.97C13.6823 19.4005 14.834 19.4586 15.9064 19.1344C16.9788 18.8101 17.9054 18.1236 18.5278 17.192C19.1503 16.2605 19.4301 15.1418 19.3193 14.0269C19.2086 12.912 18.7142 11.8702 17.9207 11.0793C17.4148 10.5738 16.8031 10.1867 16.1297 9.94588C15.4563 9.70509 14.7378 9.61661 14.0261 9.68681C13.3144 9.75701 12.6271 9.98414 12.0137 10.3519C11.4002 10.7196 10.876 11.2187 10.4786 11.8133C10.0813 12.408 9.8207 13.0833 9.71568 13.7908C9.61066 14.4982 9.66379 15.2201 9.87126 15.9045C10.0787 16.589 10.4354 17.2189 10.9155 17.749C11.3956 18.279 11.9873 18.696 12.648 18.97ZM9.22991 9.22991C9.92199 8.53783 10.7436 7.98884 11.6478 7.6143C12.5521 7.23974 13.5213 7.04697 14.5 7.04697C15.4787 7.04697 16.4479 7.23974 17.3522 7.61429C18.2564 7.98884 19.078 8.53783 19.7701 9.22991C20.4622 9.92199 21.0112 10.7436 21.3857 11.6478C21.7603 12.5521 21.953 13.5213 21.953 14.5C21.953 15.4787 21.7603 16.4479 21.3857 17.3522C21.0112 18.2564 20.4622 19.078 19.7701 19.7701C18.3724 21.1678 16.4767 21.953 14.5 21.953C12.5233 21.953 10.6276 21.1678 9.22991 19.7701C7.83219 18.3724 7.04697 16.4767 7.04697 14.5C7.04697 12.5233 7.83219 10.6276 9.22991 9.22991ZM23.606 8.15691C23.7775 7.99513 23.9148 7.80058 24.0098 7.58478C24.1047 7.36899 24.1554 7.13633 24.1589 6.90059C24.1623 6.66485 24.1184 6.43081 24.0298 6.21234C23.9411 5.99387 23.8096 5.7954 23.6429 5.62869C23.4761 5.46198 23.2777 5.33041 23.0592 5.24177C22.8407 5.15314 22.6067 5.10924 22.371 5.11268C22.1352 5.11611 21.9026 5.16682 21.6868 5.26178C21.471 5.35675 21.2764 5.49404 21.1146 5.66555C20.8 5.99908 20.6277 6.44211 20.6344 6.90059C20.6411 7.35907 20.8262 7.79689 21.1504 8.12111C21.4747 8.44534 21.9125 8.63044 22.371 8.63712C22.8294 8.64381 23.2725 8.47155 23.606 8.15691Z" fill="#00004D"/>
</svg>
