<svg width="39" height="32" viewBox="0 0 39 32" fill="none" xmlns="http://www.w3.org/2000/svg">
<path d="M0 9.66477V25.4504C0 27.1378 0.670342 28.7562 1.86356 29.9494C3.05678 31.1426 4.67513 31.8129 6.36259 31.8129H31.8129C33.5004 31.8129 35.1188 31.1426 36.312 29.9494C37.5052 28.7562 38.1755 27.1378 38.1755 25.4504V6.36259C38.1755 4.67513 37.5052 3.05678 36.312 1.86356C35.1188 0.670342 33.5004 0 31.8129 0H6.36259C4.67513 0 3.05678 0.670342 1.86356 1.86356C0.670342 3.05678 0 4.67513 0 6.36259V9.66477ZM6.36259 3.18129H31.8129C32.6567 3.18129 33.4658 3.51647 34.0625 4.11307C34.6591 4.70968 34.9942 5.51886 34.9942 6.36259V8.71675L19.0878 17.2808L3.18129 8.71675V6.36259C3.18129 5.51886 3.51647 4.70968 4.11307 4.11307C4.70968 3.51647 5.51886 3.18129 6.36259 3.18129ZM3.18129 12.3307L18.3338 20.4875C18.5655 20.6123 18.8246 20.6776 19.0878 20.6776C19.3509 20.6776 19.61 20.6123 19.8417 20.4875L34.9942 12.3307V25.4504C34.9942 26.2941 34.6591 27.1033 34.0625 27.6999C33.4658 28.2965 32.6567 28.6316 31.8129 28.6316H6.36259C5.51886 28.6316 4.70968 28.2965 4.11307 27.6999C3.51647 27.1033 3.18129 26.2941 3.18129 25.4504V12.3307Z" fill="white"/>
</svg>
