<svg width="38" height="29" viewBox="0 0 38 29" fill="none" xmlns="http://www.w3.org/2000/svg">
<path d="M38 14.4962C38 14.4029 38 14.2969 37.9958 14.1739C37.9915 13.8303 37.983 13.4444 37.9746 13.033C37.9406 11.8498 37.8812 10.6707 37.7879 9.55958C37.6607 8.02855 37.4741 6.75199 37.2196 5.79351C36.9511 4.79325 36.4247 3.88099 35.6932 3.14791C34.9616 2.41483 34.0504 1.88661 33.0507 1.61605C31.8504 1.29373 29.5009 1.0944 26.1929 0.971408C24.6194 0.912033 22.9357 0.873863 21.252 0.852657C20.6625 0.844175 20.1154 0.839934 19.6234 0.835693H18.3766C17.8846 0.839934 17.3375 0.844175 16.748 0.852657C15.0643 0.873863 13.3806 0.912033 11.8071 0.971408C8.49911 1.09864 6.14531 1.29797 4.94933 1.61605C3.94929 1.88595 3.03775 2.41395 2.30606 3.14713C1.57437 3.88031 1.04822 4.79292 0.780357 5.79351C0.521652 6.75199 0.339286 8.02855 0.212054 9.55958C0.11875 10.6707 0.0593749 11.8498 0.0254464 13.033C0.0127231 13.4444 0.00848208 13.8303 0.00424101 14.1739C0.00424101 14.2969 0 14.4029 0 14.4962V14.7337C0 14.827 -6.47768e-08 14.933 0.00424101 15.056C0.00848208 15.3995 0.0169642 15.7855 0.0254464 16.1969C0.0593749 17.3801 0.11875 18.5591 0.212054 19.6703C0.339286 21.2013 0.525893 22.4779 0.780357 23.4364C1.32321 25.4678 2.91786 27.071 4.94933 27.6138C6.14531 27.9361 8.49911 28.1355 11.8071 28.2585C13.3806 28.3178 15.0643 28.356 16.748 28.3772C17.3375 28.3857 17.8846 28.3899 18.3766 28.3942H19.6234C20.1154 28.3899 20.6625 28.3857 21.252 28.3772C22.9357 28.356 24.6194 28.3178 26.1929 28.2585C29.5009 28.1312 31.8547 27.9319 33.0507 27.6138C35.0821 27.071 36.6768 25.4721 37.2196 23.4364C37.4783 22.4779 37.6607 21.2013 37.7879 19.6703C37.8812 18.5591 37.9406 17.3801 37.9746 16.1969C37.9873 15.7855 37.9915 15.3995 37.9958 15.056C37.9958 14.933 38 14.827 38 14.7337V14.4962ZM34.9464 14.7167C34.9464 14.8058 34.9464 14.9033 34.9422 15.0178C34.9379 15.3486 34.9295 15.7134 34.921 16.1078C34.8913 17.2359 34.8319 18.364 34.7429 19.4116C34.6283 20.7772 34.4672 21.8969 34.2679 22.6475C34.0049 23.6272 33.233 24.4033 32.2576 24.662C31.367 24.8995 29.1234 25.0904 26.0741 25.2049C24.5304 25.2643 22.8679 25.3024 21.2096 25.3236C20.6286 25.3321 20.09 25.3364 19.6065 25.3364H18.3935L16.7904 25.3236C15.1321 25.3024 13.4739 25.2643 11.9259 25.2049C8.87656 25.0861 6.62879 24.8995 5.74241 24.662C4.76696 24.3991 3.99509 23.6272 3.73214 22.6475C3.53281 21.8969 3.37165 20.7772 3.25714 19.4116C3.16808 18.364 3.11295 17.2359 3.07902 16.1078C3.06629 15.7134 3.06205 15.3444 3.05781 15.0178C3.05781 14.9033 3.05357 14.8015 3.05357 14.7167V14.5131C3.05357 14.4241 3.05357 14.3265 3.05781 14.212C3.06205 13.8812 3.07054 13.5165 3.07902 13.1221C3.10871 11.994 3.16808 10.8658 3.25714 9.81828C3.37165 8.45266 3.53281 7.33301 3.73214 6.58235C3.99509 5.60266 4.76696 4.82654 5.74241 4.56784C6.63304 4.33034 8.87656 4.13949 11.9259 4.02498C13.4696 3.9656 15.1321 3.92743 16.7904 3.90623C17.3714 3.89775 17.91 3.89351 18.3935 3.89351H19.6065L21.2096 3.90623C22.8679 3.92743 24.5261 3.9656 26.0741 4.02498C29.1234 4.14373 31.3712 4.33034 32.2576 4.56784C33.233 4.83078 34.0049 5.60266 34.2679 6.58235C34.4672 7.33301 34.6283 8.45266 34.7429 9.81828C34.8319 10.8658 34.8871 11.994 34.921 13.1221C34.9337 13.5165 34.9379 13.8855 34.9422 14.212C34.9422 14.3265 34.9464 14.4283 34.9464 14.5131V14.7167ZM15.2254 20.298L25.0647 14.5725L15.2254 8.9319V20.298Z" fill="#00004D"/>
</svg>
