<svg width="32" height="32" viewBox="0 0 32 32" fill="none" xmlns="http://www.w3.org/2000/svg">
<path fill-rule="evenodd" clip-rule="evenodd" d="M9.36061 0.0955607C11.059 0.0173747 11.6005 0 15.9268 0C20.2531 0 20.7946 0.0188226 22.4915 0.0955607C24.1885 0.172299 25.3468 0.443054 26.3603 0.835433C27.4216 1.2365 28.3844 1.86343 29.1808 2.67425C29.9916 3.46915 30.6171 4.43054 31.0167 5.4933C31.4105 6.50682 31.6798 7.66513 31.758 9.35916C31.8362 11.0604 31.8536 11.6019 31.8536 15.9268C31.8536 20.2531 31.8348 20.7946 31.758 22.493C31.6813 24.187 31.4105 25.3453 31.0167 26.3588C30.6171 27.4217 29.9906 28.3847 29.1808 29.1808C28.3844 29.9916 27.4216 30.6171 26.3603 31.0167C25.3468 31.4105 24.1885 31.6798 22.4944 31.758C20.7946 31.8362 20.2531 31.8536 15.9268 31.8536C11.6005 31.8536 11.059 31.8348 9.36061 31.758C7.66658 31.6813 6.50827 31.4105 5.49474 31.0167C4.43188 30.617 3.46889 29.9905 2.67281 29.1808C1.86254 28.3854 1.23551 27.4229 0.835433 26.3603C0.443054 25.3468 0.173747 24.1885 0.0955607 22.4944C0.0173747 20.7932 0 20.2516 0 15.9268C0 11.6005 0.0188226 11.059 0.0955607 9.36206C0.172299 7.66513 0.443054 6.50682 0.835433 5.4933C1.2361 4.43066 1.86361 3.46815 2.67425 2.67281C3.4692 1.86271 4.43123 1.23569 5.4933 0.835433C6.50682 0.443054 7.66513 0.173747 9.35916 0.0955607H9.36061ZM22.3627 2.96238C20.6831 2.88565 20.1792 2.86972 15.9268 2.86972C11.6743 2.86972 11.1705 2.88565 9.49092 2.96238C7.93734 3.03333 7.09466 3.2925 6.53288 3.51113C5.79011 3.80071 5.25874 4.14386 4.7013 4.7013C4.17289 5.21538 3.76622 5.8412 3.51113 6.53288C3.2925 7.09466 3.03333 7.93734 2.96238 9.49092C2.88565 11.1705 2.86972 11.6743 2.86972 15.9268C2.86972 20.1792 2.88565 20.6831 2.96238 22.3627C3.03333 23.9163 3.2925 24.7589 3.51113 25.3207C3.76596 26.0114 4.17282 26.6383 4.7013 27.1523C5.2153 27.6808 5.84224 28.0876 6.53288 28.3425C7.09466 28.5611 7.93734 28.8203 9.49092 28.8912C11.1705 28.9679 11.6729 28.9839 15.9268 28.9839C20.1807 28.9839 20.6831 28.9679 22.3627 28.8912C23.9163 28.8203 24.7589 28.5611 25.3207 28.3425C26.0635 28.0529 26.5949 27.7097 27.1523 27.1523C27.6808 26.6383 28.0876 26.0114 28.3425 25.3207C28.5611 24.7589 28.8203 23.9163 28.8912 22.3627C28.9679 20.6831 28.9839 20.1792 28.9839 15.9268C28.9839 11.6743 28.9679 11.1705 28.8912 9.49092C28.8203 7.93734 28.5611 7.09466 28.3425 6.53288C28.0529 5.79011 27.7097 5.25874 27.1523 4.7013C26.6382 4.17292 26.0124 3.76627 25.3207 3.51113C24.7589 3.2925 23.9163 3.03333 22.3627 2.96238ZM13.8925 20.8366C15.0286 21.3095 16.2937 21.3733 17.4716 21.0172C18.6495 20.661 19.6673 19.9069 20.351 18.8837C21.0347 17.8606 21.342 16.6317 21.2204 15.4072C21.0987 14.1826 20.5557 13.0382 19.6841 12.1695C19.1284 11.6142 18.4566 11.189 17.7169 10.9245C16.9772 10.6601 16.188 10.5629 15.4063 10.64C14.6245 10.7171 13.8696 10.9666 13.1958 11.3705C12.522 11.7744 11.9462 12.3226 11.5097 12.9758C11.0733 13.6289 10.7871 14.3707 10.6717 15.1478C10.5563 15.9248 10.6147 16.7178 10.8426 17.4695C11.0705 18.2213 11.4622 18.9132 11.9896 19.4954C12.517 20.0777 13.1669 20.5357 13.8925 20.8366ZM10.1381 10.1381C10.8983 9.37795 11.8008 8.77494 12.794 8.36354C13.7872 7.95213 14.8517 7.74038 15.9268 7.74038C17.0018 7.74038 18.0664 7.95213 19.0596 8.36354C20.0528 8.77494 20.9553 9.37795 21.7155 10.1381C22.4756 10.8983 23.0786 11.8008 23.4901 12.794C23.9015 13.7872 24.1132 14.8517 24.1132 15.9268C24.1132 17.0018 23.9015 18.0664 23.4901 19.0596C23.0786 20.0528 22.4756 20.9553 21.7155 21.7155C20.1802 23.2507 18.098 24.1132 15.9268 24.1132C13.7556 24.1132 11.6734 23.2507 10.1381 21.7155C8.60288 20.1802 7.74039 18.098 7.74039 15.9268C7.74039 13.7556 8.60288 11.6734 10.1381 10.1381ZM25.9288 8.95955C26.1172 8.78185 26.268 8.56815 26.3723 8.33112C26.4766 8.09409 26.5323 7.83854 26.5361 7.57961C26.5399 7.32067 26.4916 7.0636 26.3943 6.82363C26.2969 6.58366 26.1524 6.36567 25.9693 6.18255C25.7862 5.99943 25.5682 5.85492 25.3282 5.75756C25.0883 5.66021 24.8312 5.61199 24.5722 5.61576C24.3133 5.61954 24.0578 5.67523 23.8207 5.77954C23.5837 5.88385 23.37 6.03466 23.1923 6.22303C22.8467 6.58939 22.6575 7.07602 22.6648 7.57961C22.6722 8.08319 22.8755 8.5641 23.2316 8.92023C23.5878 9.27635 24.0687 9.47967 24.5722 9.48701C25.0758 9.49435 25.5625 9.30514 25.9288 8.95955Z" fill="white"/>
</svg>
