<svg width="40" height="40" viewBox="0 0 40 40" fill="none" xmlns="http://www.w3.org/2000/svg">
<path fill-rule="evenodd" clip-rule="evenodd" d="M11.7545 0.12C13.8873 0.0218182 14.5673 0 20 0C25.4327 0 26.1127 0.0236363 28.2436 0.12C30.3745 0.216364 31.8291 0.556364 33.1018 1.04909C34.4345 1.55273 35.6436 2.34 36.6436 3.35818C37.6618 4.35636 38.4473 5.56364 38.9491 6.89818C39.4436 8.17091 39.7818 9.62545 39.88 11.7527C39.9782 13.8891 40 14.5691 40 20C40 25.4327 39.9764 26.1127 39.88 28.2455C39.7836 30.3727 39.4436 31.8273 38.9491 33.1C38.4473 34.4347 37.6605 35.644 36.6436 36.6436C35.6436 37.6618 34.4345 38.4473 33.1018 38.9491C31.8291 39.4436 30.3745 39.7818 28.2473 39.88C26.1127 39.9782 25.4327 40 20 40C14.5673 40 13.8873 39.9764 11.7545 39.88C9.62727 39.7836 8.17273 39.4436 6.9 38.9491C5.56531 38.4472 4.35604 37.6605 3.35636 36.6436C2.33887 35.6449 1.55148 34.4362 1.04909 33.1018C0.556364 31.8291 0.218182 30.3745 0.12 28.2473C0.0218182 26.1109 0 25.4309 0 20C0 14.5673 0.0236363 13.8873 0.12 11.7564C0.216364 9.62545 0.556364 8.17091 1.04909 6.89818C1.55222 5.56378 2.34022 4.35511 3.35818 3.35636C4.35644 2.33909 5.5645 1.55172 6.89818 1.04909C8.17091 0.556364 9.62545 0.218182 11.7527 0.12H11.7545ZM28.0818 3.72C25.9727 3.62364 25.34 3.60364 20 3.60364C14.66 3.60364 14.0273 3.62364 11.9182 3.72C9.96727 3.80909 8.90909 4.13455 8.20364 4.40909C7.27091 4.77273 6.60364 5.20364 5.90364 5.90364C5.24008 6.54919 4.72942 7.33506 4.40909 8.20364C4.13455 8.90909 3.80909 9.96727 3.72 11.9182C3.62364 14.0273 3.60364 14.66 3.60364 20C3.60364 25.34 3.62364 25.9727 3.72 28.0818C3.80909 30.0327 4.13455 31.0909 4.40909 31.7964C4.72909 32.6636 5.24 33.4509 5.90364 34.0964C6.54909 34.76 7.33636 35.2709 8.20364 35.5909C8.90909 35.8655 9.96727 36.1909 11.9182 36.28C14.0273 36.3764 14.6582 36.3964 20 36.3964C25.3418 36.3964 25.9727 36.3764 28.0818 36.28C30.0327 36.1909 31.0909 35.8655 31.7964 35.5909C32.7291 35.2273 33.3964 34.7964 34.0964 34.0964C34.76 33.4509 35.2709 32.6636 35.5909 31.7964C35.8655 31.0909 36.1909 30.0327 36.28 28.0818C36.3764 25.9727 36.3964 25.34 36.3964 20C36.3964 14.66 36.3764 14.0273 36.28 11.9182C36.1909 9.96727 35.8655 8.90909 35.5909 8.20364C35.2273 7.27091 34.7964 6.60364 34.0964 5.90364C33.4508 5.24013 32.6649 4.72947 31.7964 4.40909C31.0909 4.13455 30.0327 3.80909 28.0818 3.72ZM17.4455 26.1655C18.8721 26.7593 20.4607 26.8395 21.9399 26.3922C23.4191 25.945 24.6971 24.998 25.5557 23.7132C26.4142 22.4283 26.8001 20.8852 26.6474 19.3475C26.4946 17.8097 25.8127 16.3727 24.7182 15.2818C24.0204 14.5845 23.1768 14.0506 22.2479 13.7184C21.319 13.3863 20.3281 13.2643 19.3464 13.3611C18.3647 13.4579 17.4166 13.7712 16.5706 14.2784C15.7245 14.7856 15.0014 15.4741 14.4533 16.2943C13.9052 17.1145 13.5458 18.046 13.4009 19.0217C13.2561 19.9975 13.3294 20.9933 13.6155 21.9373C13.9017 22.8813 14.3936 23.7502 15.0559 24.4813C15.7181 25.2124 16.5342 25.7876 17.4455 26.1655ZM12.7309 12.7309C13.6855 11.7763 14.8188 11.0191 16.066 10.5025C17.3132 9.98586 18.65 9.71995 20 9.71995C21.35 9.71995 22.6868 9.98585 23.934 10.5025C25.1812 11.0191 26.3145 11.7763 27.2691 12.7309C28.2237 13.6855 28.9809 14.8188 29.4975 16.066C30.0141 17.3132 30.28 18.65 30.28 20C30.28 21.35 30.0141 22.6868 29.4975 23.934C28.9809 25.1812 28.2237 26.3145 27.2691 27.2691C25.3412 29.197 22.7264 30.28 20 30.28C17.2736 30.28 14.6588 29.197 12.7309 27.2691C10.803 25.3412 9.71995 22.7264 9.71995 20C9.71995 17.2736 10.803 14.6588 12.7309 12.7309ZM32.56 11.2509C32.7966 11.0278 32.9859 10.7594 33.1169 10.4618C33.2479 10.1641 33.3178 9.84322 33.3226 9.51805C33.3273 9.19289 33.2668 8.87009 33.1445 8.56875C33.0223 8.2674 32.8408 7.99366 32.6108 7.76371C32.3809 7.53376 32.1071 7.35229 31.8058 7.23003C31.5045 7.10778 31.1817 7.04723 30.8565 7.05197C30.5313 7.05671 30.2104 7.12664 29.9128 7.25763C29.6151 7.38862 29.3468 7.57799 29.1236 7.81455C28.6897 8.2746 28.4521 8.88568 28.4613 9.51805C28.4705 10.1504 28.7258 10.7543 29.173 11.2015C29.6202 11.6487 30.2241 11.9041 30.8565 11.9133C31.4889 11.9225 32.0999 11.6849 32.56 11.2509Z" fill="black"/>
</svg>
