<svg width="41" height="41" viewBox="0 0 41 41" fill="none" xmlns="http://www.w3.org/2000/svg">
<path fill-rule="evenodd" clip-rule="evenodd" d="M19.0453 0.0201244C18.8908 0.0382555 18.4215 0.0902422 18.0023 0.135731C15.3554 0.422941 12.4243 1.41614 10.059 2.8274C7.04879 4.62343 4.60212 7.07009 2.8061 10.0803C1.40639 12.4262 0.476725 15.1524 0.0974148 18.0236C-0.0324716 19.0067 -0.0324716 22.0147 0.0974148 22.9977C0.476725 25.8689 1.40639 28.5951 2.8061 30.941C4.60212 33.9512 7.04879 36.3979 10.059 38.1939C12.4049 39.5936 15.1311 40.5233 18.0023 40.9026C18.9853 41.0325 21.9934 41.0325 22.9764 40.9026C27.9719 40.2426 32.2063 38.0485 35.6622 34.3295C37.574 32.272 39.0698 29.7129 39.9877 26.9288C40.7113 24.7342 40.982 22.9867 40.982 20.5107C40.982 18.6789 40.9047 17.8697 40.5759 16.2587C39.4486 10.735 35.8997 5.79875 30.9197 2.8274C28.5977 1.44198 25.8287 0.492658 23.0566 0.131479C22.353 0.0398601 19.5427 -0.0382002 19.0453 0.0201244ZM19.2652 10.7705C19.1954 10.8404 13.1632 10.4482 13.0509 10.3665C13.0001 10.3295 13.7288 8.59785 14.1428 7.772C15.4706 5.12308 17.2236 3.26408 18.9606 2.66262L19.2458 2.56386L19.2666 6.65613C19.2781 8.9068 19.2775 10.7583 19.2652 10.7705ZM22.6632 2.94301C24.1441 3.68992 25.6814 5.46894 26.8359 7.772C27.3348 8.7672 27.9726 10.3264 27.9075 10.3915C27.8445 10.4545 24.5527 10.7002 23.0767 10.7521L21.6927 10.8008V6.67394V2.54709L22.0014 2.65596C22.1711 2.71589 22.469 2.84505 22.6632 2.94301ZM13.7827 3.76341C13.7511 3.8186 13.5557 4.09835 13.3483 4.38516C12.4701 5.59987 11.5559 7.39252 10.9039 9.17868C10.7297 9.65587 10.5592 10.001 10.4976 10.001C10.1599 10.001 6.57112 9.18639 6.47196 9.08723C6.41356 9.0289 7.26275 8.07774 7.98912 7.38779C9.34118 6.10369 10.7873 5.1003 12.5047 4.25463C13.7422 3.64531 13.8806 3.59204 13.7827 3.76341ZM28.474 4.25463C30.191 5.10006 31.6259 6.09559 32.9974 7.39293C33.7578 8.11231 34.631 9.13031 34.5508 9.20404C34.419 9.32526 30.4704 10.1513 30.4065 10.071C30.3935 10.0546 30.246 9.66205 30.0787 9.19874C29.436 7.4182 28.517 5.61142 27.6304 4.38516C27.1709 3.74969 27.12 3.66312 27.2057 3.66312C27.2426 3.66312 27.8133 3.92931 28.474 4.25463ZM5.70716 11.3989C6.46931 11.627 8.57798 12.1194 9.36717 12.2536L9.91792 12.3472L9.87588 12.6383C9.8527 12.7983 9.74255 13.4166 9.63111 14.0123C9.38602 15.3223 9.19893 16.9061 9.12649 18.2844L9.07274 19.3073H5.75562H2.43842V19.0167C2.43842 18.1136 2.89467 15.9304 3.37394 14.5402C3.78109 13.3593 4.8282 11.2044 4.99491 11.2044C5.02941 11.2044 5.34991 11.2919 5.70716 11.3989ZM36.8146 12.6677C37.3945 13.8708 37.7896 14.963 38.0871 16.1849C38.3066 17.0864 38.5403 18.5469 38.5403 19.0167V19.3073H35.2231H31.906L31.8522 18.2844C31.7801 16.9111 31.5932 15.3263 31.3486 14.0123C31.2378 13.4166 31.1277 12.8159 31.104 12.6773L31.0611 12.4254L31.6518 12.3292C32.441 12.2006 34.5639 11.7302 35.4115 11.4962C36.2249 11.2715 36.0857 11.1553 36.8146 12.6677ZM13.6023 12.8458C14.5911 12.9539 15.9623 13.0494 18.3433 13.1758L19.286 13.2259V16.2666V19.3073H15.395H11.504V18.8789C11.504 17.2389 12.185 12.7287 12.4327 12.7287C12.4871 12.7287 13.0135 12.7814 13.6023 12.8458ZM28.6724 12.8402C28.6724 12.8574 28.7431 13.215 28.8295 13.6348C29.1611 15.2464 29.4747 17.7953 29.4747 18.8789V19.3073H25.5837H21.6927V16.2689V13.2306L22.9964 13.1768C24.543 13.1129 27.8159 12.8873 27.8635 12.8413C27.9064 12.7997 28.6724 12.7987 28.6724 12.8402ZM9.16259 23.1C9.26929 24.618 9.49232 26.2943 9.74969 27.512C9.92875 28.359 9.91351 28.5333 9.66056 28.5333C9.37206 28.5333 6.72957 29.0917 5.85213 29.338C5.38562 29.4691 4.94854 29.5762 4.88075 29.5762C4.70449 29.5762 3.73351 27.5492 3.33439 26.3479C2.84597 24.8783 2.43842 22.9026 2.43842 22.0046V21.7141H5.75185H9.0652L9.16259 23.1ZM19.286 24.7225V27.731L18.3433 27.7314C17.1903 27.7318 15.1584 27.8525 13.5589 28.0154C12.9021 28.0823 12.3554 28.1269 12.344 28.1146C12.3327 28.1022 12.2293 27.6335 12.1144 27.073C11.8629 25.8472 11.6148 23.9452 11.5383 22.6567L11.4822 21.7141H15.3841H19.286V24.7225ZM29.4404 22.6567C29.3639 23.9445 29.1116 25.8816 28.8631 27.0892C28.7497 27.6408 28.644 28.1129 28.6284 28.1383C28.6127 28.1638 28.3545 28.1549 28.0545 28.1187C26.7842 27.9651 24.6764 27.8075 23.2371 27.7583L21.6927 27.7056V24.7099V21.7141H25.5946H29.4965L29.4404 22.6567ZM38.5403 22.0046C38.5403 22.9068 38.1326 24.8785 37.6391 26.3636C37.2152 27.6392 36.1744 29.7696 36.0067 29.7052C35.4377 29.4869 31.4011 28.5333 31.0459 28.5333C31.0288 28.5333 31.0848 28.2174 31.1704 27.8313C31.4265 26.675 31.7114 24.5892 31.8155 23.1072L31.9135 21.7141H35.2269H38.5403V22.0046ZM19.286 34.2294C19.286 36.4797 19.2723 38.3209 19.2556 38.3209C19.1813 38.3209 18.5684 38.0533 18.2029 37.8613C16.7406 37.0931 15.1856 35.2647 14.1057 33.0439C13.6902 32.1894 13.0042 30.5339 13.049 30.4934C13.0733 30.4713 16.107 30.2252 16.7588 30.1924C17.0236 30.1791 17.7005 30.1613 18.2631 30.153L19.286 30.1378V34.2294ZM25.9849 30.3414C26.6908 30.4043 27.4185 30.4762 27.6019 30.5012L27.9353 30.5465L27.6285 31.3339C26.4001 34.486 24.6053 36.9002 22.7758 37.8613C22.4103 38.0533 21.7974 38.3209 21.7231 38.3209C21.7064 38.3209 21.6927 36.4749 21.6927 34.2187V30.1165L23.197 30.1718C24.0244 30.2022 25.2789 30.2785 25.9849 30.3414ZM10.7486 31.282C11.4182 33.3017 12.4239 35.2168 13.9029 37.2882C14.0139 37.4436 14.0098 37.4435 13.6062 37.2844C11.7338 36.5464 9.59132 35.1497 7.97749 33.6152C7.24237 32.9163 6.22911 31.7683 6.29835 31.7127C6.42623 31.6099 10.4488 30.7797 10.5552 30.8341C10.5849 30.8493 10.672 31.0509 10.7486 31.282ZM31.4001 31.0622C32.3573 31.2418 34.4764 31.75 34.5508 31.8178C34.6378 31.8971 33.728 32.9416 32.8871 33.7276C31.3175 35.195 29.1867 36.5693 27.3725 37.2844C26.9689 37.4435 26.9648 37.4436 27.0758 37.2882C28.5551 35.2165 29.5605 33.3018 30.2304 31.2811C30.3502 30.9199 30.3947 30.8653 30.5441 30.8972C30.6399 30.9175 31.0251 30.9918 31.4001 31.0622Z" fill="white"/>
</svg>
