<svg width="51" height="27" viewBox="0 0 51 27" fill="none" xmlns="http://www.w3.org/2000/svg">
<path d="M25.7314 0.938175C23.2439 2.20231 22.2245 5.66849 23.5702 8.15599C24.1003 9.13467 24.9159 9.82791 26.2615 10.3988C28.015 11.092 28.3005 11.1328 29.8908 10.6027C32.0929 9.78713 33.4386 7.87054 33.4386 5.38304C33.4386 3.83346 33.2347 3.34411 31.8482 1.99842C30.5025 0.611947 30.0132 0.408053 28.5044 0.408053C27.5257 0.408053 26.2615 0.652725 25.7314 0.938175Z" fill="black"/>
<path d="M0 5.82712V11.1394H5.04785H10.0957V18.6991V26.7742H15.3455H20.5952V13.3869V0.000347137H10.2976H0V5.82712Z" fill="black"/>
<path d="M33.2697 13.2292C30.3969 20.0937 27.8997 26.4865 27.7766 26.7742C28.8026 26.7742 29.1737 26.7743 33.8934 26.7742L40.418 26.7742L45.2127 14.4212C48.0035 7.80336 50.8767 0.411232 50.9998 0.000183105C50.9998 0.000183105 50.9998 0.000183105 44.883 0.000183105H38.3584L33.2697 13.2292Z" fill="black"/>
<circle cx="28.3413" cy="5.50535" r="5.50511" fill="black"/>
</svg>
