<svg width="28" height="28" viewBox="0 0 28 28" fill="none" xmlns="http://www.w3.org/2000/svg">
<path fill-rule="evenodd" clip-rule="evenodd" d="M8.15405 0.0832432C9.63351 0.0151351 10.1052 0 13.8739 0C17.6425 0 18.1142 0.0163964 19.5924 0.0832432C21.0706 0.15009 22.0796 0.385946 22.9625 0.727748C23.887 1.07712 24.7258 1.62324 25.4195 2.32955C26.1258 3.02198 26.6706 3.85946 27.0187 4.78523C27.3618 5.66811 27.5964 6.67712 27.6645 8.15279C27.7326 9.63478 27.7477 10.1065 27.7477 13.8739C27.7477 17.6425 27.7313 18.1142 27.6645 19.5937C27.5977 21.0694 27.3618 22.0784 27.0187 22.9613C26.6706 23.8871 26.1249 24.726 25.4195 25.4195C24.7258 26.1258 23.887 26.6706 22.9625 27.0187C22.0796 27.3618 21.0706 27.5964 19.595 27.6645C18.1142 27.7326 17.6425 27.7477 13.8739 27.7477C10.1052 27.7477 9.63351 27.7313 8.15405 27.6645C6.67838 27.5977 5.66937 27.3618 4.78649 27.0187C3.86062 26.6706 3.02176 26.1248 2.32829 25.4195C1.62246 24.7266 1.07625 23.8881 0.727748 22.9625C0.385946 22.0796 0.151351 21.0706 0.0832432 19.595C0.0151351 18.113 0 17.6413 0 13.8739C0 10.1052 0.0163964 9.63351 0.0832432 8.15532C0.15009 6.67712 0.385946 5.66811 0.727748 4.78523C1.07677 3.85956 1.62339 3.02112 2.32955 2.32829C3.02203 1.62261 3.86005 1.07642 4.78523 0.727748C5.66811 0.385946 6.67712 0.151351 8.15279 0.0832432H8.15405ZM19.4802 2.58054C18.0171 2.51369 17.5782 2.49982 13.8739 2.49982C10.1695 2.49982 9.73063 2.51369 8.26757 2.58054C6.91423 2.64234 6.18018 2.86811 5.69081 3.05856C5.04378 3.31081 4.5809 3.60973 4.09532 4.09532C3.63501 4.54313 3.28077 5.08828 3.05856 5.69081C2.86811 6.18018 2.64234 6.91423 2.58054 8.26757C2.51369 9.73063 2.49982 10.1695 2.49982 13.8739C2.49982 17.5782 2.51369 18.0171 2.58054 19.4802C2.64234 20.8335 2.86811 21.5676 3.05856 22.0569C3.28054 22.6586 3.63496 23.2047 4.09532 23.6524C4.54306 24.1128 5.08919 24.4672 5.69081 24.6892C6.18018 24.8796 6.91423 25.1054 8.26757 25.1672C9.73063 25.2341 10.1683 25.2479 13.8739 25.2479C17.5795 25.2479 18.0171 25.2341 19.4802 25.1672C20.8335 25.1054 21.5676 24.8796 22.0569 24.6892C22.704 24.4369 23.1668 24.138 23.6524 23.6524C24.1128 23.2047 24.4672 22.6586 24.6892 22.0569C24.8796 21.5676 25.1054 20.8335 25.1672 19.4802C25.2341 18.0171 25.2479 17.5782 25.2479 13.8739C25.2479 10.1695 25.2341 9.73063 25.1672 8.26757C25.1054 6.91423 24.8796 6.18018 24.6892 5.69081C24.4369 5.04378 24.138 4.5809 23.6524 4.09532C23.2046 3.63504 22.6594 3.28081 22.0569 3.05856C21.5676 2.86811 20.8335 2.64234 19.4802 2.58054ZM12.1018 18.1508C13.0915 18.5628 14.1934 18.6184 15.2195 18.3081C16.2456 17.9979 17.1322 17.341 17.7278 16.4497C18.3234 15.5584 18.5911 14.4879 18.4851 13.4212C18.3791 12.3545 17.9061 11.3576 17.1468 10.6009C16.6628 10.1172 16.0776 9.74679 15.4332 9.5164C14.7889 9.28601 14.1014 9.20135 13.4204 9.26852C12.7394 9.33569 12.0818 9.55302 11.4949 9.90485C10.908 10.2567 10.4063 10.7343 10.0261 11.3032C9.64595 11.8722 9.39663 12.5184 9.29615 13.1953C9.19566 13.8721 9.2465 14.5629 9.445 15.2178C9.64351 15.8726 9.98475 16.4754 10.4442 16.9825C10.9036 17.4897 11.4697 17.8887 12.1018 18.1508ZM8.83135 8.83135C9.49354 8.16916 10.2797 7.64388 11.1449 7.2855C12.0101 6.92712 12.9374 6.74267 13.8739 6.74267C14.8104 6.74267 15.7377 6.92712 16.6029 7.2855C17.4681 7.64388 18.2542 8.16916 18.9164 8.83135C19.5786 9.49354 20.1039 10.2797 20.4622 11.1449C20.8206 12.0101 21.0051 12.9374 21.0051 13.8739C21.0051 14.8104 20.8206 15.7377 20.4622 16.6029C20.1039 17.4681 19.5786 18.2542 18.9164 18.9164C17.579 20.2538 15.7652 21.0051 13.8739 21.0051C11.9826 21.0051 10.1687 20.2538 8.83135 18.9164C7.49399 17.579 6.74267 15.7652 6.74267 13.8739C6.74267 11.9826 7.49399 10.1687 8.83135 8.83135ZM22.5867 7.80468C22.7508 7.64989 22.8821 7.46374 22.973 7.25726C23.0639 7.05079 23.1124 6.82818 23.1157 6.60261C23.1189 6.37705 23.0769 6.15312 22.9921 5.94408C22.9073 5.73505 22.7814 5.54515 22.6219 5.38563C22.4624 5.22612 22.2725 5.10023 22.0635 5.01543C21.8544 4.93062 21.6305 4.88862 21.405 4.89191C21.1794 4.89519 20.9568 4.94371 20.7503 5.03457C20.5438 5.12544 20.3577 5.2568 20.2029 5.4209C19.9018 5.74004 19.737 6.16394 19.7434 6.60261C19.7498 7.04129 19.9269 7.46021 20.2371 7.77043C20.5474 8.08066 20.9663 8.25777 21.405 8.26416C21.8436 8.27056 22.2675 8.10573 22.5867 7.80468Z" fill="white"/>
</svg>
